<svg width="18" height="18" viewBox="0 0 18 18" fill="none" xmlns="http://www.w3.org/2000/svg">
<path d="M17.6708 5.95471L12.0458 0.329706C11.7668 0.0507056 11.3624 -0.0612319 10.9793 0.0332681C10.7774 0.0827681 10.5968 0.186831 10.454 0.329706C10.3263 0.457393 10.2301 0.615456 10.175 0.792081C9.92015 1.61839 9.47972 2.33671 8.82778 2.98808C7.95703 3.85827 6.82303 4.51752 5.62321 5.21446C4.34971 5.95246 3.03403 6.71746 1.95571 7.79521C1.0394 8.71264 0.415589 9.73302 0.0499638 10.9176C-0.0732237 11.3176 0.0342138 11.7501 0.328964 12.046L5.95396 17.671C6.23296 17.95 6.6374 18.062 7.02046 17.9675C7.2224 17.9168 7.40296 17.8139 7.54584 17.671C7.67353 17.5433 7.76971 17.3853 7.82484 17.2075C8.08021 16.3812 8.52065 15.6629 9.17315 15.0115C10.0433 14.1413 11.1768 13.4832 12.3777 12.7868C13.6501 12.0477 14.9663 11.2827 16.0441 10.205C16.9604 9.28864 17.5842 8.26714 17.9504 7.08252C18.073 6.68314 17.965 6.24889 17.6708 5.95471ZM6.7499 16.8751C4.8869 15.0121 2.9879 13.1125 1.1249 11.2501C2.72353 6.07452 9.6524 6.30064 11.2499 1.12508C13.1129 2.98752 15.0125 4.88708 16.876 6.75008C15.2768 11.9245 8.34796 11.6995 6.7499 16.8751ZM11.0035 8.38133C10.8202 8.22777 10.6357 8.12314 10.45 8.07139C10.2655 8.01964 10.081 7.99883 9.89428 8.01233C9.70978 8.02639 9.52078 8.06858 9.33178 8.14114C9.14278 8.21483 8.95265 8.29471 8.7614 8.38752C8.45934 8.04046 8.15728 7.69733 7.85521 7.37896C7.99134 7.25577 8.12353 7.19333 8.25065 7.18883C8.37834 7.18321 8.50096 7.19671 8.6174 7.22596C8.73609 7.25577 8.84465 7.28108 8.94478 7.30077C9.04603 7.32046 9.13378 7.29852 9.21084 7.23383C9.2924 7.16352 9.3374 7.07239 9.34359 6.96271C9.34922 6.85189 9.30759 6.74389 9.21478 6.63871C9.09609 6.50258 8.95321 6.41989 8.78165 6.38952C8.61234 6.35971 8.43909 6.36196 8.25853 6.40133C8.08078 6.44183 7.91146 6.50877 7.75115 6.60327C7.59084 6.69777 7.46203 6.79452 7.3664 6.88902C7.32984 6.85414 7.29328 6.81983 7.25671 6.78552C7.21621 6.74839 7.16559 6.72814 7.10484 6.72927C7.04353 6.72927 6.9929 6.75571 6.95128 6.80408C6.91078 6.85133 6.89221 6.90646 6.89953 6.96439C6.90515 7.02458 6.92934 7.07071 6.97096 7.10614C7.00753 7.13708 7.04409 7.16746 7.08065 7.19952C6.93665 7.37333 6.81796 7.56514 6.72459 7.76764C6.63009 7.97071 6.57384 8.17208 6.55303 8.36727C6.53109 8.56414 6.5519 8.74414 6.61209 8.91121C6.67228 9.07939 6.78365 9.22227 6.94621 9.35727C7.21115 9.57721 7.52278 9.67058 7.88446 9.64977C8.24503 9.62783 8.63371 9.52039 9.05165 9.29595C9.38353 9.67958 9.71653 10.0604 10.049 10.4142C9.90834 10.5329 9.78515 10.601 9.67659 10.6229C9.56803 10.646 9.47128 10.6437 9.38353 10.6173C9.29578 10.5897 9.21421 10.5503 9.1394 10.4997C9.06459 10.448 8.9909 10.4041 8.91721 10.3681C8.84465 10.3321 8.76984 10.3118 8.69334 10.3107C8.61684 10.3096 8.53528 10.3467 8.44528 10.4238C8.35303 10.5042 8.3069 10.5976 8.3069 10.7028C8.3069 10.8074 8.35528 10.9137 8.44978 11.0211C8.5454 11.1286 8.66971 11.2191 8.8199 11.2906C8.97009 11.362 9.13997 11.407 9.32671 11.4194C9.51346 11.4323 9.71034 11.4042 9.9179 11.3271C10.1266 11.2512 10.333 11.114 10.5367 10.9098C10.6345 11.0054 10.7335 11.0965 10.832 11.1843C10.8736 11.2203 10.9242 11.2383 10.9855 11.2338C11.0446 11.2315 11.0963 11.204 11.1374 11.1545C11.179 11.1038 11.1965 11.0481 11.1903 10.9896C11.1847 10.9306 11.1605 10.885 11.12 10.8524C11.021 10.7731 10.922 10.6898 10.8235 10.6021C10.9917 10.3956 11.1267 10.178 11.2268 9.96252C11.327 9.74596 11.386 9.53727 11.4057 9.34377C11.4254 9.14914 11.4023 8.97364 11.3388 8.81446C11.2758 8.65302 11.1638 8.51464 11.0035 8.38133ZM7.85859 8.76271C7.6994 8.76946 7.56046 8.71658 7.43896 8.59902C7.38721 8.54952 7.35121 8.48933 7.32928 8.41789C7.30621 8.34646 7.29834 8.26827 7.30734 8.18277C7.31521 8.09839 7.34053 8.01008 7.3844 7.92121C7.42603 7.83233 7.4879 7.74346 7.56665 7.65739C7.85184 7.94089 8.13647 8.25196 8.42165 8.57371C8.20565 8.69239 8.01778 8.75596 7.85859 8.76271ZM10.5119 9.88883C10.4613 9.98221 10.4033 10.0655 10.3353 10.138C10.0197 9.81964 9.70472 9.46977 9.39028 9.11089C9.47072 9.07489 9.55509 9.03721 9.64622 8.99896C9.73734 8.96071 9.82847 8.93539 9.91959 8.91964C10.013 8.90558 10.1052 8.90952 10.1975 8.93146C10.2886 8.95452 10.3752 9.00402 10.4557 9.0822C10.535 9.16152 10.585 9.24364 10.6053 9.33252C10.6272 9.42252 10.6283 9.51364 10.6132 9.60702C10.5968 9.70096 10.5637 9.79433 10.5119 9.88883ZM8.27821 12.4763C8.38903 12.3869 8.55215 12.3914 8.65396 12.4949C8.76421 12.6046 8.76421 12.784 8.65396 12.8937C8.64497 12.9027 8.6354 12.9089 8.62528 12.9168L8.6264 12.9179C8.27034 13.1885 7.97784 13.432 7.66228 13.7476C7.37709 14.0322 7.11946 14.332 6.89671 14.6363L6.53728 15.1285C6.52603 15.1488 6.51253 15.1673 6.49565 15.1848C6.3854 15.2945 6.20596 15.2945 6.09628 15.1848C6.00065 15.0891 5.98884 14.9418 6.05915 14.8321L6.05803 14.831L6.44278 14.3056C6.68296 13.9771 6.95915 13.6553 7.26459 13.3499C7.5824 13.031 7.92553 12.7463 8.27709 12.4763H8.27821ZM10.3375 4.33977C10.6222 4.05514 10.8792 3.75646 11.1025 3.45046L11.476 2.93858C11.4895 2.91439 11.5047 2.89021 11.5255 2.86939C11.6363 2.75858 11.8158 2.75858 11.9266 2.86939C12.0318 2.97514 12.0363 3.14221 11.9407 3.25414L11.9418 3.25527L11.557 3.78289C11.3163 4.11139 11.0407 4.43202 10.7352 4.73746C10.4174 5.05527 10.0748 5.34102 9.72328 5.61102L9.72103 5.60989C9.60909 5.71283 9.43528 5.71058 9.32784 5.60202C9.21703 5.49121 9.21703 5.31064 9.32784 5.19983C9.34753 5.17902 9.37059 5.16439 9.39365 5.15146C9.7244 4.89889 10.0433 4.63396 10.3375 4.33977Z" fill="white"/>
</svg>
